<?xml version="1.0" standalone="no"?>
<!DOCTYPE svg PUBLIC "-//W3C//DTD SVG 20010904//EN"
 "http://www.w3.org/TR/2001/REC-SVG-20010904/DTD/svg10.dtd">
<svg version="1.0" xmlns="http://www.w3.org/2000/svg"
 width="400.000000pt" height="400.000000pt" viewBox="0 0 400.000000 400.000000"
 preserveAspectRatio="xMidYMid meet">
<metadata>
Created by potrace 1.14, written by Peter Selinger 2001-2017
</metadata>
<g transform="translate(0.000000,400.000000) scale(0.100000,-0.100000)"
fill="#000000" stroke="none">
<path d="M1379 3630 c-56 -10 -247 -110 -290 -152 -21 -21 -51 -59 -66 -85
-25 -43 -28 -57 -28 -138 l0 -90 78 -147 c42 -82 88 -167 101 -190 13 -24 49
-92 81 -153 32 -60 74 -139 93 -175 19 -36 55 -103 80 -150 25 -47 62 -116 82
-155 49 -92 122 -230 178 -335 24 -47 62 -118 83 -157 22 -40 58 -108 80 -150
23 -43 57 -107 77 -143 19 -36 40 -74 45 -85 23 -45 32 -63 63 -120 18 -33 57
-107 87 -165 l56 -105 113 -82 c62 -46 124 -91 137 -100 13 -10 52 -38 87 -63
35 -25 116 -83 180 -130 65 -47 123 -88 130 -93 11 -6 12 12 9 85 -6 135 -17
485 -19 618 -2 102 -5 120 -28 160 -14 25 -51 95 -83 155 -32 61 -70 133 -85
160 -15 28 -51 95 -80 150 -29 55 -70 132 -90 170 -38 72 -88 164 -167 315
-62 116 -129 243 -168 315 -18 33 -58 110 -90 170 -32 61 -70 133 -85 160 -15
28 -51 95 -80 150 -29 55 -72 136 -95 180 -169 319 -160 305 -222 342 -52 30
-110 42 -164 33z"/>
</g>
</svg>
